PathFileType	4	(X/Y/Z)	D:\TRACE\v60_Jaco2_6-2-23\v60_baseline_3-platform.trc
DataRate	CameraRate	NumFrames	NumMarkers	Units	OrigDataRate	OrigDataStartFrame	OrigNumFrames
100.00	100.00	      43	5	mm	100.00	5688	      6500
Frame#	Time	Left_Front			Right_Front			Left_Aft			Right_Aft			Post			
		X1	Y1	Z1	X2	Y2	Z2	X3	Y3	Z3	X4	Y4	Z4	X5	Y5	Z5	

5688	56.870	-800.57654	9.16636	-638.67279	769.34290	10.33502	-644.45215	-708.84839	8.05667	496.31973	733.39087	6.92633	505.88318	-14.12007	1308.06470	-961.29419	
5689	56.880	-800.51245	8.88046	-638.77991	769.35815	10.08821	-644.34808	-709.15204	8.23308	496.46960	733.51385	7.00106	505.83005	-14.24109	1308.09766	-961.16278	
5690	56.890	-800.58783	8.61652	-638.94269	769.38892	9.96522	-644.34784	-708.69385	7.98785	496.08450	733.50897	7.04101	505.83273	-14.17066	1308.04163	-961.23492	
5691	56.900	-800.57440	8.59099	-638.93317	769.40320	10.15257	-644.40277	-708.71057	7.97861	496.06241	733.49725	6.95106	505.86264	-14.07196	1307.99658	-961.48761	
5692	56.910	-800.58630	8.90328	-638.79327	769.30945	10.11322	-644.37878	-708.72095	7.95671	496.06915	733.41669	6.92551	505.89093	-14.01560	1307.97510	-961.80701	
5693	56.920	-800.50562	9.05484	-638.68341	769.42407	10.08082	-644.37128	-708.86163	8.12919	495.83344	733.47412	6.97110	505.86563	-13.95319	1308.03711	-962.25500	
5694	56.930	-800.54187	9.02113	-638.72278	769.34613	10.12301	-644.39185	-708.54980	7.75404	496.12439	733.48108	6.94670	505.86014	-13.87936	1308.18799	-962.50714	
5695	56.940	-800.54181	8.88187	-638.82965	769.44843	10.23621	-644.40289	-708.57880	7.72290	496.07770	733.53888	7.05021	505.84363	-13.84145	1308.27661	-962.54260	
5696	56.950	-800.50818	8.74722	-638.96814	769.43317	10.14552	-644.37518	-708.57581	7.66875	496.03101	733.45044	6.98329	505.86209	-13.90152	1308.33020	-962.54028	
5697	56.960	-800.49774	8.90911	-638.85687	769.32489	10.08238	-644.37732	-708.56317	7.58047	496.08917	733.39069	6.92752	505.91507	-13.87632	1308.22632	-962.48315	
5698	56.970	-800.48059	9.07113	-638.75983	769.39001	10.09103	-644.40607	-708.52094	7.61431	496.12045	733.41290	6.90667	505.91290	-13.91809	1308.12109	-962.24713	
5699	56.980	-800.52661	9.11412	-638.65521	769.33209	10.16398	-644.41272	-708.62708	7.89913	496.14102	733.14984	7.00219	505.98932	-14.04653	1308.15771	-961.85480	
5700	56.990	-800.55347	8.93592	-638.77319	769.34485	10.25245	-644.40863	-708.67462	8.02984	496.03925	733.27313	7.05786	505.91782	-14.20283	1308.10840	-961.39734	
5701	57.000	-800.53552	8.90277	-638.82318	769.44507	10.18650	-644.39740	-708.74780	8.06986	496.02878	733.46771	7.03038	505.82074	-14.19375	1308.11548	-961.17529	
5702	57.010	-800.57275	8.85866	-638.90332	769.39063	10.11223	-644.39697	-708.70355	7.93797	496.01782	733.45581	7.00654	505.84198	-14.07950	1308.08484	-961.10455	
5703	57.020	-800.49359	8.94964	-638.85834	769.35065	10.07238	-644.41748	-708.65546	7.84696	496.05420	733.39758	6.94839	505.88177	-14.14210	1308.05872	-961.23804	
5704	57.030	-800.57483	8.99701	-638.67633	769.35468	10.10365	-644.40076	-708.66803	7.94854	496.13843	733.40302	6.94786	505.89783	-14.12743	1308.11206	-961.49689	
5705	57.040	-800.57117	9.03409	-638.66724	769.43640	10.16768	-644.36328	-708.68762	7.98790	496.10797	733.48077	6.96651	505.84906	-14.11413	1308.25903	-961.93030	
5706	57.050	-800.56030	8.96790	-638.75745	769.42719	10.16977	-644.38257	-708.67609	7.92232	496.15015	733.50653	6.98222	505.83737	-14.09101	1308.27283	-962.20245	
5707	57.060	-800.52643	8.91422	-638.87885	769.42224	10.16349	-644.42865	-708.72797	7.97427	496.14206	733.49207	6.97701	505.85226	-13.96124	1308.22876	-962.32111	
5708	57.070	-800.53845	8.85279	-638.88269	769.41534	10.08534	-644.38019	-708.67365	7.89365	496.09796	733.37830	6.94161	505.91403	-13.91242	1308.07800	-962.30872	
5709	57.080	-800.57355	8.82748	-638.81299	769.41858	10.02368	-644.33014	-708.67017	7.90049	496.12131	733.37286	6.92705	505.89276	-13.90079	1307.96094	-962.20093	
5710	57.090	-800.60297	8.94639	-638.69849	769.36060	10.11380	-644.33990	-708.65656	7.95307	496.12653	733.41205	6.97136	505.86508	-13.99007	1308.01819	-962.15814	
5711	57.100	-800.57446	8.93349	-638.76837	769.51154	10.12720	-644.33179	-708.54370	7.75618	496.09335	733.52100	7.02753	505.83203	-14.08247	1308.10388	-961.99646	
5712	57.110	-800.50604	8.96182	-638.82129	769.46857	10.18900	-644.39606	-708.52844	7.71447	496.10730	733.53296	7.01277	505.83734	-13.98666	1308.16333	-961.84949	
5713	57.120	-800.52252	8.86195	-638.86047	769.43958	10.18113	-644.37512	-708.51703	7.62201	496.15732	733.51129	6.94844	505.84769	-14.10747	1308.13354	-961.66663	
5714	57.130	-800.51941	8.87244	-638.82782	769.38367	10.14331	-644.35504	-708.49506	7.55588	496.10745	733.47229	6.95228	505.88345	-14.17701	1308.13110	-961.56830	
5715	57.140	-800.56494	8.96868	-638.78876	769.38043	10.06073	-644.37811	-708.50623	7.58771	496.09613	733.41693	6.94429	505.91525	-14.12470	1308.17749	-961.56158	
5716	57.150	-800.57220	9.07100	-638.75348	769.41492	10.17062	-644.35718	-708.57617	7.69182	496.09439	733.45673	6.96994	505.86829	-14.16368	1308.17737	-961.49371	
5717	57.160	-800.52106	9.01442	-638.82928	769.45715	10.17139	-644.36407	-708.60608	7.71942	496.09418	733.51239	7.00243	505.85272	-14.21097	1308.25098	-961.54895	
5718	57.170	-800.50531	8.94545	-638.83746	769.35944	10.23168	-644.40247	-708.81036	8.09556	495.89096	733.53931	6.99468	505.82773	-14.03043	1308.15198	-961.51953	
5719	57.180	-800.50098	8.86089	-638.89722	769.44513	10.09491	-644.37183	-708.68427	7.95272	496.09970	733.48883	6.95845	505.84802	-14.04501	1308.11340	-961.64435	
5720	57.190	-800.51483	8.83322	-638.88983	769.33057	10.07762	-644.44580	-708.71289	7.98441	496.04129	733.48267	6.99445	505.85095	-13.99871	1308.08191	-961.89142	
5721	57.200	-800.56372	8.89864	-638.83344	769.43689	10.06987	-644.35034	-708.71155	7.98846	496.04630	733.48163	6.99322	505.84525	-14.04198	1308.04565	-962.11078	
5722	57.210	-800.60321	9.02961	-638.74664	769.40430	10.14027	-644.33911	-708.67822	7.97260	496.07373	733.22070	7.02523	505.97406	-14.00987	1308.12378	-962.24548	
5723	57.220	-800.56006	8.95755	-638.73785	769.42981	10.16502	-644.34998	-708.72791	8.01486	496.07794	733.45807	6.96954	505.84814	-13.95327	1308.15320	-962.35815	
5724	57.230	-800.55829	8.91372	-638.74445	769.38104	10.16975	-644.42010	-708.76141	7.99832	496.10880	733.40417	6.94342	505.87070	-13.97934	1308.18115	-962.28949	
5725	57.240	-800.51758	8.89629	-638.81964	769.36115	10.22533	-644.42480	-708.73096	8.00959	496.08591	733.35962	6.90593	505.89294	-14.00840	1308.17822	-962.16943	
5726	57.250	-800.53638	9.05620	-638.76074	769.36700	10.29712	-644.44281	-708.69751	7.95294	496.07828	733.01953	6.93536	506.06226	-14.03101	1308.19702	-961.89801	
5727	57.260	-800.58252	8.94140	-638.71716	769.39386	10.21016	-644.40564	-708.71399	8.01386	496.15991	733.44812	6.85569	505.89108	-14.25611	1308.21509	-961.65417	
5728	57.270	-800.62939	8.77247	-638.80981	769.48718	10.04558	-644.27472	-708.69934	8.07560	496.08871	733.52374	6.95553	505.85098	-14.21726	1308.19495	-961.37445	
5729	57.280	-800.60516	8.56430	-638.92993	769.38037	10.01902	-644.33850	-708.76251	8.00046	496.05420	733.48157	6.92802	505.86200	-14.21829	1308.09277	-961.13623	
5730	57.290	-800.62994	8.65472	-638.87811	769.38586	10.19032	-644.42053	-708.73724	8.00157	496.07043	733.47229	6.91027	505.87933	-14.02823	1307.99475	-961.08215	
